<svg width="64" height="64" viewBox="0 0 64 64" fill="none" xmlns="http://www.w3.org/2000/svg">
<path d="M13.3793 51.176C13.5713 50.728 14.0993 49.544 14.9633 47.624C15.8273 45.736 16.9473 43.272 18.3233 40.232C19.7313 37.16 21.2993 33.688 23.0273 29.816C24.7873 25.912 26.6433 21.784 28.5953 17.432C28.6913 17.208 28.7873 16.92 28.8833 16.568C29.0113 16.184 29.0753 15.816 29.0753 15.464C29.0753 15.112 28.9633 14.824 28.7393 14.6C28.5473 14.344 28.1153 14.216 27.4433 14.216C26.0993 14.216 24.9793 14.68 24.0833 15.608C23.2193 16.504 22.5633 17.624 22.1153 18.968C21.6993 20.312 21.4913 21.64 21.4913 22.952C21.4913 23.272 21.4913 23.544 21.4913 23.768C21.5233 23.992 21.5553 24.216 21.5873 24.44C20.9793 24.44 20.4833 24.232 20.0993 23.816C19.7473 23.368 19.4753 22.84 19.2833 22.232C19.1233 21.592 19.0433 21.016 19.0433 20.504C19.0433 19.448 19.3313 18.44 19.9073 17.48C20.4833 16.52 21.2193 15.656 22.1153 14.888C23.0433 14.12 24.0513 13.528 25.1393 13.112C26.2593 12.664 27.3473 12.44 28.4033 12.44C29.4593 12.44 30.3393 12.744 31.0433 13.352C31.7793 13.928 32.3233 14.984 32.6753 16.52C33.0593 18.056 33.2513 20.28 33.2513 23.192C33.2513 25.176 33.1713 27.288 33.0113 29.528C32.8833 31.768 32.7393 33.976 32.5793 36.152C32.4193 38.328 32.3073 40.312 32.2433 42.104C32.7553 40.152 33.4753 38.072 34.4033 35.864C35.3633 33.656 36.4033 31.464 37.5233 29.288C38.6753 27.08 39.8113 25.016 40.9313 23.096C42.0513 21.176 43.0593 19.512 43.9553 18.104C44.8513 16.696 45.5073 15.672 45.9233 15.032C46.3713 14.392 46.7553 13.912 47.0753 13.592C47.3953 13.24 47.8113 13.064 48.3233 13.064C48.7713 13.064 49.2833 13.176 49.8593 13.4C49.6353 13.976 49.3153 14.84 48.8993 15.992C48.5153 17.112 48.1153 18.488 47.6993 20.12C47.1873 22.072 46.6753 24.296 46.1633 26.792C45.6513 29.256 45.1713 31.768 44.7233 34.328C44.3073 36.888 43.9713 39.304 43.7153 41.576C43.4593 43.816 43.3313 45.704 43.3313 47.24C43.3313 47.944 43.3633 48.488 43.4273 48.872C43.4913 49.256 43.5713 49.592 43.6673 49.88C43.7953 50.2 43.9233 50.632 44.0513 51.176C42.9633 51.176 42.1313 51 41.5553 50.648C40.9793 50.296 40.5953 49.72 40.4033 48.92C40.2113 48.152 40.1153 47.112 40.1153 45.8C40.1153 41.992 40.5953 37.912 41.5553 33.56C42.5473 29.176 43.6673 24.632 44.9153 19.928C43.9873 21.112 43.0113 22.616 41.9873 24.44C40.9953 26.232 39.9873 28.184 38.9633 30.296C37.9713 32.376 37.0113 34.472 36.0833 36.584C35.1873 38.664 34.3873 40.6 33.6833 42.392C32.9793 44.184 32.4353 45.672 32.0513 46.856C31.8593 46.92 31.7313 46.968 31.6673 47C31.6033 47.032 31.4913 47.048 31.3313 47.048C30.4673 47.048 29.8913 46.536 29.6033 45.512C29.3473 44.488 29.2193 43.048 29.2193 41.192C29.2193 39.88 29.2513 38.328 29.3153 36.536C29.4113 34.712 29.5073 32.84 29.6033 30.92C29.6993 29 29.7793 27.16 29.8433 25.4C29.9393 23.608 29.9873 22.072 29.9873 20.792C29.9873 20.152 29.9713 19.624 29.9393 19.208C29.9393 18.792 29.9233 18.424 29.8913 18.104C27.3313 24.056 25.1873 29.144 23.4593 33.368C21.7313 37.56 20.2753 40.968 19.0913 43.592C17.9393 46.216 16.9153 48.136 16.0193 49.352C15.1233 50.568 14.2433 51.176 13.3793 51.176Z" fill="#2196F3"/>
</svg>
